<svg id="Camada_1" data-name="Camada 1" xmlns="http://www.w3.org/2000/svg" xmlns:xlink="http://www.w3.org/1999/xlink" viewBox="0 0 32 32"><defs><style>.cls-1{fill-rule:evenodd;fill:url(#Gradiente_sem_nome);}</style><linearGradient id="Gradiente_sem_nome" x1="7.43" y1="30" x2="20.86" y2="6.84" gradientTransform="matrix(1, 0, 0, -1, 0, 34)" gradientUnits="userSpaceOnUse"><stop offset="0" stop-color="#ff008e"/><stop offset="1" stop-color="#ffcd1e"/></linearGradient></defs><path class="cls-1" d="M32,16a8,8,0,0,1-1.37,4.47,8.2,8.2,0,0,1-3.67,3,8.49,8.49,0,0,1-4.73.46A8.27,8.27,0,0,1,18,21.68a8,8,0,0,1-2.24-4.11,7.64,7.64,0,0,1-.15-1.35,7.64,7.64,0,0,1-2.29,5.21,7.91,7.91,0,0,1-5.53,2.25H0V8.31H7.83a7.91,7.91,0,0,1,5.53,2.25,7.64,7.64,0,0,1,2.29,5.21,7.91,7.91,0,0,1,.62-2.84,8,8,0,0,1,3-3.6,8.27,8.27,0,0,1,10.32,1A8,8,0,0,1,32,16Z"/></svg>